<svg xmlns="http://www.w3.org/2000/svg" xmlns:xlink="http://www.w3.org/1999/xlink" xmlns:lucid="lucid" width="1640" height="1524"><g transform="translate(-5840 880)" lucid:page-tab-id="0_0"><path d="M5420.6-1258.83h3677.73v2581.66H5420.6z" fill="#fff"/><path d="M6160-227c0-2.76 2.24-5 5-5h210c2.76 0 5 2.24 5 5V59c0 2.76-2.24 5-5 5h-210c-2.76 0-5-2.24-5-5z" fill="#fff"/><path d="M6160-227c0-2.76 2.24-5 5-5h210c2.76 0 5 2.24 5 5V59c0 2.76-2.24 5-5 5h-210c-2.76 0-5-2.24-5-5zM6160-192h220" stroke="#333" stroke-width="2" fill="none"/><use xlink:href="#a" transform="matrix(1,0,0,1,6170,-232.0000000000001) translate(69.07499999999999 23.6)"/><use xlink:href="#b" transform="matrix(1,0,0,1,6165,-189.5000000000001) translate(0 17.1)"/><use xlink:href="#c" transform="matrix(1,0,0,1,6165,-157.5000000000001) translate(0 17.1)"/><use xlink:href="#d" transform="matrix(1,0,0,1,6165,-125.50000000000011) translate(0 17.1)"/><use xlink:href="#e" transform="matrix(1,0,0,1,6165,-93.50000000000011) translate(0 17.1)"/><use xlink:href="#f" transform="matrix(1,0,0,1,6165,-61.500000000000114) translate(0 17.1)"/><use xlink:href="#g" transform="matrix(1,0,0,1,6165,-29.500000000000114) translate(0 17.1)"/><use xlink:href="#h" transform="matrix(1,0,0,1,6165,2.4999999999998863) translate(0 17.1)"/><use xlink:href="#i" transform="matrix(1,0,0,1,6165,34.499999999999886) translate(0 17.1)"/><use xlink:href="#j" transform="matrix(1,0,0,1,6165,34.499999999999886) translate(63.900000000000006 17.1)"/><path d="M7260-515.12c0-2.76 2.24-5 5-5h190c2.76 0 5 2.24 5 5v286c0 2.76-2.24 5-5 5h-190c-2.76 0-5-2.24-5-5z" fill="#fff"/><path d="M7260-515.12c0-2.76 2.24-5 5-5h190c2.76 0 5 2.24 5 5v286c0 2.76-2.24 5-5 5h-190c-2.76 0-5-2.24-5-5zM7260-480.12h200" stroke="#333" stroke-width="2" fill="none"/><use xlink:href="#k" transform="matrix(1,0,0,1,7270,-520.12) translate(65.5 23.6)"/><use xlink:href="#b" transform="matrix(1,0,0,1,7265,-477.62) translate(0 17.1)"/><use xlink:href="#l" transform="matrix(1,0,0,1,7265,-445.62) translate(0 17.1)"/><use xlink:href="#m" transform="matrix(1,0,0,1,7265,-413.62) translate(0 17.1)"/><use xlink:href="#n" transform="matrix(1,0,0,1,7265,-381.62) translate(0 17.1)"/><use xlink:href="#o" transform="matrix(1,0,0,1,7265,-349.62) translate(0 17.1)"/><use xlink:href="#p" transform="matrix(1,0,0,1,7265,-317.62) translate(0 17.1)"/><use xlink:href="#f" transform="matrix(1,0,0,1,7265,-285.62) translate(0 17.1)"/><use xlink:href="#h" transform="matrix(1,0,0,1,7265,-253.62) translate(0 17.1)"/><path d="M6740-483.12c0-2.76 2.24-5 5-5h190c2.76 0 5 2.24 5 5v158c0 2.76-2.24 5-5 5h-190c-2.76 0-5-2.24-5-5z" fill="#fff"/><path d="M6740-483.12c0-2.76 2.24-5 5-5h190c2.76 0 5 2.24 5 5v158c0 2.76-2.24 5-5 5h-190c-2.76 0-5-2.24-5-5zM6740-448.12h200" stroke="#333" stroke-width="2" fill="none"/><use xlink:href="#q" transform="matrix(1,0,0,1,6750,-488.12) translate(60.099999999999994 23.6)"/><use xlink:href="#b" transform="matrix(1,0,0,1,6745,-445.62) translate(0 17.1)"/><use xlink:href="#r" transform="matrix(1,0,0,1,6745,-413.62) translate(0 17.1)"/><use xlink:href="#s" transform="matrix(1,0,0,1,6745,-381.62) translate(0 17.1)"/><use xlink:href="#t" transform="matrix(1,0,0,1,6745,-349.62) translate(0 17.1)"/><path d="M6760-855c0-2.76 2.24-5 5-5h190c2.76 0 5 2.24 5 5v254c0 2.76-2.24 5-5 5h-190c-2.76 0-5-2.24-5-5z" fill="#fff"/><path d="M6760-855c0-2.76 2.24-5 5-5h190c2.76 0 5 2.24 5 5v254c0 2.76-2.24 5-5 5h-190c-2.76 0-5-2.24-5-5zM6760-820h200" stroke="#333" stroke-width="2" fill="none"/><use xlink:href="#u" transform="matrix(1,0,0,1,6770,-860) translate(44.074999999999996 23.6)"/><use xlink:href="#b" transform="matrix(1,0,0,1,6765,-817.5) translate(0 17.1)"/><use xlink:href="#v" transform="matrix(1,0,0,1,6765,-785.5) translate(0 17.1)"/><use xlink:href="#w" transform="matrix(1,0,0,1,6765,-753.5) translate(0 17.1)"/><use xlink:href="#x" transform="matrix(1,0,0,1,6765,-721.5) translate(0 17.1)"/><use xlink:href="#y" transform="matrix(1,0,0,1,6765,-689.5) translate(0 17.1)"/><use xlink:href="#f" transform="matrix(1,0,0,1,6765,-657.5) translate(0 17.1)"/><use xlink:href="#h" transform="matrix(1,0,0,1,6765,-625.5) translate(0 17.1)"/><path d="M7079.7 397c0-2.76 2.24-5 5-5H7315c2.76 0 5 2.24 5 5v222c0 2.76-2.24 5-5 5h-230.3c-2.76 0-5-2.24-5-5z" fill="#fff"/><path d="M7079.7 397c0-2.76 2.24-5 5-5H7315c2.76 0 5 2.24 5 5v222c0 2.76-2.24 5-5 5h-230.3c-2.76 0-5-2.24-5-5zM7079.7 432H7320" stroke="#333" stroke-width="2" fill="none"/><use xlink:href="#z" transform="matrix(1,0,0,1,7089.704328479358,392) translate(85.525 23.6)"/><use xlink:href="#A" transform="matrix(1,0,0,1,7084.704328479358,434.5) translate(0 17.1)"/><use xlink:href="#r" transform="matrix(1,0,0,1,7084.704328479358,466.5) translate(0 17.1)"/><use xlink:href="#o" transform="matrix(1,0,0,1,7084.704328479358,498.5) translate(0 17.1)"/><use xlink:href="#f" transform="matrix(1,0,0,1,7084.704328479358,530.5) translate(0 17.1)"/><use xlink:href="#B" transform="matrix(1,0,0,1,7084.704328479358,562.5) translate(0 17.1)"/><use xlink:href="#C" transform="matrix(1,0,0,1,7084.704328479358,594.5) translate(0 17.1)"/><path d="M6540 397c0-2.76 2.24-5 5-5h190c2.76 0 5 2.24 5 5v158c0 2.76-2.24 5-5 5h-190c-2.76 0-5-2.24-5-5z" fill="#fff"/><path d="M6540 397c0-2.76 2.24-5 5-5h190c2.76 0 5 2.24 5 5v158c0 2.76-2.24 5-5 5h-190c-2.76 0-5-2.24-5-5zM6540 432h200" stroke="#333" stroke-width="2" fill="none"/><use xlink:href="#D" transform="matrix(1,0,0,1,6550,392) translate(44.55 23.6)"/><use xlink:href="#b" transform="matrix(1,0,0,1,6545,434.5) translate(0 17.1)"/><use xlink:href="#E" transform="matrix(1,0,0,1,6545,466.5) translate(0 17.1)"/><use xlink:href="#F" transform="matrix(1,0,0,1,6545,498.5) translate(0 17.1)"/><use xlink:href="#G" transform="matrix(1,0,0,1,6545,530.5) translate(0 17.1)"/><path d="M7360-223.12V400c0 6.63-5.37 12-12 12h-8.18M7375-222.12h-30" stroke="#333" stroke-width="2" fill="none"/><path d="M7321.45 402l20 10-20 10M7321.45 412h20" stroke="#333" stroke-width="2" fill="#fff"/><path d="M6381-212h90c6.63 0 12-5.37 12-12v-164.12c0-6.63 5.37-12 12-12h225.18M6382-227v30" stroke="#333" stroke-width="2" fill="none"/><path d="M6738.55-390.12l-20-10 20-10M6738.55-400.12h-20" stroke="#333" stroke-width="2" fill="#fff"/><path d="M7259-400.12h-299.18M7258-385.12v-30" stroke="#333" stroke-width="2" fill="none"/><path d="M6941.45-410.12l20 10-20 10M6941.45-400.12h20" stroke="#333" stroke-width="2" fill="#fff"/><path d="M6100 297c0-2.76 2.24-5 5-5h190c2.76 0 5 2.24 5 5v254c0 2.76-2.24 5-5 5h-190c-2.76 0-5-2.24-5-5z" fill="#fff"/><path d="M6100 297c0-2.76 2.24-5 5-5h190c2.76 0 5 2.24 5 5v254c0 2.76-2.24 5-5 5h-190c-2.76 0-5-2.24-5-5zM6100 332h200" stroke="#333" stroke-width="2" fill="none"/><use xlink:href="#H" transform="matrix(1,0,0,1,6110,292) translate(19.099999999999994 23.6)"/><use xlink:href="#b" transform="matrix(1,0,0,1,6105,334.5) translate(0 17.1)"/><use xlink:href="#I" transform="matrix(1,0,0,1,6105,366.5) translate(0 17.1)"/><use xlink:href="#w" transform="matrix(1,0,0,1,6105,398.5) translate(0 17.1)"/><use xlink:href="#J" transform="matrix(1,0,0,1,6105,430.5) translate(0 17.1)"/><use xlink:href="#K" transform="matrix(1,0,0,1,6105,462.5) translate(0 17.1)"/><use xlink:href="#f" transform="matrix(1,0,0,1,6105,494.5) translate(0 17.1)"/><use xlink:href="#h" transform="matrix(1,0,0,1,6105,526.5) translate(0 17.1)"/><path d="M7078.7 448h-318.88M7077.7 463v-30" stroke="#5e5e5e" stroke-width="2" fill="none"/><path d="M6741.45 438l20 10-20 10M6741.45 448h20" stroke="#5e5e5e" stroke-width="2" fill="#fff"/><path d="M6381-48h73c3.3 0 6 2.7 6 6v448c0 3.3 2.7 6 6 6h54.18M6382-63v30" stroke="#5e5e5e" stroke-width="2" fill="none"/><path d="M6538.55 422l-20-10 20-10M6538.55 412h-20" stroke="#5e5e5e" stroke-width="2" fill="#fff"/><path d="M6519 512h-93c-3.3 0-6-2.7-6-6V354c0-3.3-2.7-6-6-6h-94.18" stroke="#5e5e5e" stroke-width="2" fill="none"/><path d="M6519 502v20M6539 512h-20M6301.45 338l20 10-20 10M6301.45 348h20" stroke="#5e5e5e" stroke-width="2" fill="#fff"/><path d="M6941-468.12h54c3.3 0 6-2.7 6-6V-702c0-3.3-2.7-6-6-6h-15.18M6942-483.12v30" stroke="#5e5e5e" stroke-width="2" fill="none"/><path d="M6961.45-718l20 10-20 10M6961.45-708h20" stroke="#5e5e5e" stroke-width="2" fill="#fff"/><path d="M6220-555c0-2.76 2.24-5 5-5h190c2.76 0 5 2.24 5 5v190c0 2.76-2.24 5-5 5h-190c-2.76 0-5-2.24-5-5z" fill="#fff"/><path d="M6220-555c0-2.76 2.24-5 5-5h190c2.76 0 5 2.24 5 5v190c0 2.76-2.24 5-5 5h-190c-2.76 0-5-2.24-5-5zM6220-520h200" stroke="#333" stroke-width="2" fill="none"/><use xlink:href="#L" transform="matrix(1,0,0,1,6230,-560) translate(14.125 23.6)"/><use xlink:href="#M" transform="matrix(1,0,0,1,6230,-560) translate(111.92500000000001 23.6)"/><use xlink:href="#b" transform="matrix(1,0,0,1,6225,-517.5) translate(0 17.1)"/><use xlink:href="#N" transform="matrix(1,0,0,1,6225,-485.5) translate(0 17.1)"/><use xlink:href="#O" transform="matrix(1,0,0,1,6225,-453.5) translate(0 17.1)"/><use xlink:href="#f" transform="matrix(1,0,0,1,6225,-421.5) translate(0 17.1)"/><use xlink:href="#P" transform="matrix(1,0,0,1,6225,-389.5) translate(0 17.1)"/><path d="M6270-253v-42.97l-.03-.03c-.02 0-.04-.02-.04-.03v-44.15" stroke="#5e5e5e" stroke-width="2" fill="none"/><path d="M6280-253h-20M6270-233v-20M6279.93-358.55l-10 20-10-20M6269.93-358.55v20" stroke="#5e5e5e" stroke-width="2" fill="#fff"/><path d="M6739-740h-413c-3.3 0-6 2.7-6 6v154.18" stroke="#5e5e5e" stroke-width="2" fill="none"/><path d="M6739-750v20M6759-740h-20M6310-561.45l10-20 10 20M6320-561.45v-20" stroke="#5e5e5e" stroke-width="2" fill="#fff"/><path d="M5860 65c0-2.76 2.24-5 5-5h190c2.76 0 5 2.24 5 5v190c0 2.76-2.24 5-5 5h-190c-2.76 0-5-2.24-5-5z" fill="#fff"/><path d="M5860 65c0-2.76 2.24-5 5-5h190c2.76 0 5 2.24 5 5v190c0 2.76-2.24 5-5 5h-190c-2.76 0-5-2.24-5-5zM5860 100h200" stroke="#333" stroke-width="2" fill="none"/><use xlink:href="#Q" transform="matrix(1,0,0,1,5870,60) translate(7.625 23.6)"/><use xlink:href="#b" transform="matrix(1,0,0,1,5865,102.5) translate(0 17.1)"/><use xlink:href="#O" transform="matrix(1,0,0,1,5865,134.5) translate(0 17.1)"/><use xlink:href="#R" transform="matrix(1,0,0,1,5865,166.5) translate(0 17.1)"/><use xlink:href="#f" transform="matrix(1,0,0,1,5865,198.5) translate(0 17.1)"/><use xlink:href="#P" transform="matrix(1,0,0,1,5865,230.5) translate(0 17.1)"/><path d="M6079 412h-113c-3.3 0-6-2.7-6-6V279.82" stroke="#5e5e5e" stroke-width="2" fill="none"/><path d="M6079 402v20M6099 412h-20M5970 261.45l-10 20-10-20M5960 261.45v20" stroke="#5e5e5e" stroke-width="2" fill="#fff"/><path d="M6081 180h183c3.3 0 6-2.7 6-6V83.82" stroke="#5e5e5e" stroke-width="2" fill="none"/><path d="M6081 190v-20M6061 180h20M6280 65.45l-10 20-10-20M6270 65.45v20" stroke="#5e5e5e" stroke-width="2" fill="#fff"/><path d="M6381-80h123c3.3 0 6 2.7 6 6v450c0 3.3 2.7 6 6 6h458c3.3 0 6 2.7 6 6v18c0 3.3 2.7 6 6 6h73.88M6382-95v30" stroke="#5e5e5e" stroke-width="2" fill="none"/><path d="M7078.26 422l-20-10 20-10M7078.26 412h-20" stroke="#5e5e5e" stroke-width="2" fill="#fff"/><path d="M6700 225c0-2.76 2.24-5 5-5h190c2.76 0 5 2.24 5 5v94c0 2.76-2.24 5-5 5h-190c-2.76 0-5-2.24-5-5z" fill="#fff"/><path d="M6700 225c0-2.76 2.24-5 5-5h190c2.76 0 5 2.24 5 5v94c0 2.76-2.24 5-5 5h-190c-2.76 0-5-2.24-5-5zM6700 260h200" stroke="#333" stroke-width="2" fill="none"/><use xlink:href="#S" transform="matrix(1,0,0,1,6710,220) translate(76.55 23.6)"/><use xlink:href="#b" transform="matrix(1,0,0,1,6705,262.5) translate(0 17.1)"/><use xlink:href="#T" transform="matrix(1,0,0,1,6705,294.5) translate(0 17.1)"/><path d="M6800 199V-12.18" stroke="#5e5e5e" stroke-width="2" fill="none"/><path d="M6810 199h-20M6800 219v-20M6810-30.55l-10 20-10-20M6800-30.55v20" stroke="#5e5e5e" stroke-width="2" fill="#fff"/><path d="M6401-112h279.18" stroke="#5e5e5e" stroke-width="2" fill="none"/><path d="M6401-102v-20M6381-112h20M6698.55-102l-20-10 20-10M6698.55-112h-20" stroke="#5e5e5e" stroke-width="2" fill="#fff"/><path d="M6700-163c0-2.76 2.24-5 5-5h190c2.76 0 5 2.24 5 5v126c0 2.76-2.24 5-5 5h-190c-2.76 0-5-2.24-5-5z" fill="#fff"/><path d="M6700-163c0-2.76 2.24-5 5-5h190c2.76 0 5 2.24 5 5v126c0 2.76-2.24 5-5 5h-190c-2.76 0-5-2.24-5-5zM6700-128h200" stroke="#333" stroke-width="2" fill="none"/><use xlink:href="#U" transform="matrix(1,0,0,1,6710,-168.0000000000001) translate(59.625 23.6)"/><use xlink:href="#b" transform="matrix(1,0,0,1,6705,-125.50000000000011) translate(0 17.1)"/><use xlink:href="#O" transform="matrix(1,0,0,1,6705,-93.50000000000011) translate(0 17.1)"/><use xlink:href="#V" transform="matrix(1,0,0,1,6705,-61.500000000000114) translate(0 17.1)"/><path d="M6401-144.55h243c3.3 0 6-2.68 6-6v-147.57c0-3.3 2.7-6 6-6h584.18" stroke="#5e5e5e" stroke-width="2" fill="none"/><path d="M6401-134.55v-20M6381-144.55h20M7258.55-294.12l-20-10 20-10M7258.55-304.12h-20" stroke="#5e5e5e" stroke-width="2" fill="#fff"/><defs><path fill="#333" d="M232-93c-1 65-40 97-104 97C67 4 28-28 28-90v-158h33c8 89-33 224 67 224 102 0 64-133 71-224h33v155" id="W"/><path fill="#333" d="M135-143c-3-34-86-38-87 0 15 53 115 12 119 90S17 21 10-45l28-5c4 36 97 45 98 0-10-56-113-15-118-90-4-57 82-63 122-42 12 7 21 19 24 35" id="X"/><path fill="#333" d="M84 4C-5 8 30-112 23-190h32v120c0 31 7 50 39 49 72-2 45-101 50-169h31l1 190h-30c-1-10 1-25-2-33-11 22-28 36-60 37" id="Y"/><path fill="#333" d="M141-36C126-15 110 5 73 4 37 3 15-17 15-53c-1-64 63-63 125-63 3-35-9-54-41-54-24 1-41 7-42 31l-33-3c5-37 33-52 76-52 45 0 72 20 72 64v82c-1 20 7 32 28 27v20c-31 9-61-2-59-35zM48-53c0 20 12 33 32 33 41-3 63-29 60-74-43 2-92-5-92 41" id="Z"/><path fill="#333" d="M114-163C36-179 61-72 57 0H25l-1-190h30c1 12-1 29 2 39 6-27 23-49 58-41v29" id="aa"/><path fill="#333" d="M24-231v-30h32v30H24zM24 0v-190h32V0H24" id="ab"/><path fill="#333" d="M100-194c62-1 85 37 85 99 1 63-27 99-86 99S16-35 15-95c0-66 28-99 85-99zM99-20c44 1 53-31 53-75 0-43-8-75-51-75s-53 32-53 75 10 74 51 75" id="ac"/><g id="a"><use transform="matrix(0.05,0,0,0.05,0,0)" xlink:href="#W"/><use transform="matrix(0.05,0,0,0.05,12.950000000000001,0)" xlink:href="#X"/><use transform="matrix(0.05,0,0,0.05,21.950000000000003,0)" xlink:href="#Y"/><use transform="matrix(0.05,0,0,0.05,31.950000000000003,0)" xlink:href="#Z"/><use transform="matrix(0.05,0,0,0.05,41.95,0)" xlink:href="#aa"/><use transform="matrix(0.05,0,0,0.05,47.900000000000006,0)" xlink:href="#ab"/><use transform="matrix(0.05,0,0,0.05,51.85,0)" xlink:href="#ac"/></g><path fill="#333" d="M85-194c31 0 48 13 60 33l-1-100h32l1 261h-30c-2-10 0-23-3-31C134-8 116 4 85 4 32 4 16-35 15-94c0-66 23-100 70-100zm9 24c-40 0-46 34-46 75 0 40 6 74 45 74 42 0 51-32 51-76 0-42-9-74-50-73" id="ad"/><g id="b"><use transform="matrix(0.05,0,0,0.05,0,0)" xlink:href="#ab"/><use transform="matrix(0.05,0,0,0.05,3.95,0)" xlink:href="#ad"/></g><path fill="#333" d="M117-194c89-4 53 116 60 194h-32v-121c0-31-8-49-39-48C34-167 62-67 57 0H25l-1-190h30c1 10-1 24 2 32 11-22 29-35 61-36" id="ae"/><path fill="#333" d="M210-169c-67 3-38 105-44 169h-31v-121c0-29-5-50-35-48C34-165 62-65 56 0H25l-1-190h30c1 10-1 24 2 32 10-44 99-50 107 0 11-21 27-35 58-36 85-2 47 119 55 194h-31v-121c0-29-5-49-35-48" id="af"/><path fill="#333" d="M115-194c53 0 69 39 70 98 0 66-23 100-70 100C84 3 66-7 56-30L54 0H23l1-261h32v101c10-23 28-34 59-34zm-8 174c40 0 45-34 45-75 0-40-5-75-45-74-42 0-51 32-51 76 0 43 10 73 51 73" id="ag"/><path fill="#333" d="M100-194c63 0 86 42 84 106H49c0 40 14 67 53 68 26 1 43-12 49-29l28 8c-11 28-37 45-77 45C44 4 14-33 15-96c1-61 26-98 85-98zm52 81c6-60-76-77-97-28-3 7-6 17-6 28h103" id="ah"/><g id="c"><use transform="matrix(0.05,0,0,0.05,0,0)" xlink:href="#ae"/><use transform="matrix(0.05,0,0,0.05,10,0)" xlink:href="#ac"/><use transform="matrix(0.05,0,0,0.05,20,0)" xlink:href="#af"/><use transform="matrix(0.05,0,0,0.05,34.95,0)" xlink:href="#ag"/><use transform="matrix(0.05,0,0,0.05,44.95,0)" xlink:href="#aa"/><use transform="matrix(0.05,0,0,0.05,50.900000000000006,0)" xlink:href="#ah"/></g><path d="M141-36C126-15 110 5 73 4 37 3 15-17 15-53c-1-64 63-63 125-63 3-35-9-54-41-54-24 1-41 7-42 31l-33-3c5-37 33-52 76-52 45 0 72 20 72 64v82c-1 20 7 32 28 27v20c-31 9-61-2-59-35zM48-53c0 20 12 33 32 33 41-3 63-29 60-74-43 2-92-5-92 41" id="ai"/><path d="M115-194c55 1 70 41 70 98S169 2 115 4C84 4 66-9 55-30l1 105H24l-1-265h31l2 30c10-21 28-34 59-34zm-8 174c40 0 45-34 45-75s-6-73-45-74c-42 0-51 32-51 76 0 43 10 73 51 73" id="aj"/><path d="M100-194c63 0 86 42 84 106H49c0 40 14 67 53 68 26 1 43-12 49-29l28 8c-11 28-37 45-77 45C44 4 14-33 15-96c1-61 26-98 85-98zm52 81c6-60-76-77-97-28-3 7-6 17-6 28h103" id="ak"/><path d="M24 0v-261h32V0H24" id="al"/><path d="M24-231v-30h32v30H24zM24 0v-190h32V0H24" id="am"/><path d="M85-194c31 0 48 13 60 33l-1-100h32l1 261h-30c-2-10 0-23-3-31C134-8 116 4 85 4 32 4 16-35 15-94c0-66 23-100 70-100zm9 24c-40 0-46 34-46 75 0 40 6 74 45 74 42 0 51-32 51-76 0-42-9-74-50-73" id="an"/><path d="M100-194c62-1 85 37 85 99 1 63-27 99-86 99S16-35 15-95c0-66 28-99 85-99zM99-20c44 1 53-31 53-75 0-43-8-75-51-75s-53 32-53 75 10 74 51 75" id="ao"/><g id="d"><use transform="matrix(0.05,0,0,0.05,0,0)" xlink:href="#ai"/><use transform="matrix(0.05,0,0,0.05,10,0)" xlink:href="#aj"/><use transform="matrix(0.05,0,0,0.05,20,0)" xlink:href="#ak"/><use transform="matrix(0.05,0,0,0.05,30,0)" xlink:href="#al"/><use transform="matrix(0.05,0,0,0.05,33.95,0)" xlink:href="#al"/><use transform="matrix(0.05,0,0,0.05,37.900000000000006,0)" xlink:href="#am"/><use transform="matrix(0.05,0,0,0.05,41.85000000000001,0)" xlink:href="#an"/><use transform="matrix(0.05,0,0,0.05,51.85,0)" xlink:href="#ao"/></g><path fill="#333" d="M96-169c-40 0-48 33-48 73s9 75 48 75c24 0 41-14 43-38l32 2c-6 37-31 61-74 61-59 0-76-41-82-99-10-93 101-131 147-64 4 7 5 14 7 22l-32 3c-4-21-16-35-41-35" id="ap"/><g id="e"><use transform="matrix(0.05,0,0,0.05,0,0)" xlink:href="#ap"/><use transform="matrix(0.05,0,0,0.05,9,0)" xlink:href="#ac"/><use transform="matrix(0.05,0,0,0.05,19,0)" xlink:href="#aa"/><use transform="matrix(0.05,0,0,0.05,24.95,0)" xlink:href="#aa"/><use transform="matrix(0.05,0,0,0.05,30.899999999999995,0)" xlink:href="#ah"/><use transform="matrix(0.05,0,0,0.05,40.9,0)" xlink:href="#ac"/></g><path d="M135-143c-3-34-86-38-87 0 15 53 115 12 119 90S17 21 10-45l28-5c4 36 97 45 98 0-10-56-113-15-118-90-4-57 82-63 122-42 12 7 21 19 24 35" id="aq"/><path d="M96-169c-40 0-48 33-48 73s9 75 48 75c24 0 41-14 43-38l32 2c-6 37-31 61-74 61-59 0-76-41-82-99-10-93 101-131 147-64 4 7 5 14 7 22l-32 3c-4-21-16-35-41-35" id="ar"/><path d="M114-163C36-179 61-72 57 0H25l-1-190h30c1 12-1 29 2 39 6-27 23-49 58-41v29" id="as"/><path d="M117-194c89-4 53 116 60 194h-32v-121c0-31-8-49-39-48C34-167 62-67 57 0H25l-1-190h30c1 10-1 24 2 32 11-22 29-35 61-36" id="at"/><g id="f"><use transform="matrix(0.05,0,0,0.05,0,0)" xlink:href="#an"/><use transform="matrix(0.05,0,0,0.05,10,0)" xlink:href="#ak"/><use transform="matrix(0.05,0,0,0.05,20,0)" xlink:href="#aq"/><use transform="matrix(0.05,0,0,0.05,29,0)" xlink:href="#ar"/><use transform="matrix(0.05,0,0,0.05,38,0)" xlink:href="#as"/><use transform="matrix(0.05,0,0,0.05,43.95,0)" xlink:href="#am"/><use transform="matrix(0.05,0,0,0.05,47.900000000000006,0)" xlink:href="#aj"/><use transform="matrix(0.05,0,0,0.05,57.900000000000006,0)" xlink:href="#ar"/><use transform="matrix(0.05,0,0,0.05,66.9,0)" xlink:href="#am"/><use transform="matrix(0.05,0,0,0.05,70.85000000000001,0)" xlink:href="#ao"/><use transform="matrix(0.05,0,0,0.05,80.85000000000001,0)" xlink:href="#at"/></g><path d="M101-234c-31-9-42 10-38 44h38v23H63V0H32v-167H5v-23h27c-7-52 17-82 69-68v24" id="au"/><path d="M106-169C34-169 62-67 57 0H25v-261h32l-1 103c12-21 28-36 61-36 89 0 53 116 60 194h-32v-121c2-32-8-49-39-48" id="av"/><path d="M190 0L58-211 59 0H30v-248h39L202-35l-2-213h31V0h-41" id="aw"/><path d="M210-169c-67 3-38 105-44 169h-31v-121c0-29-5-50-35-48C34-165 62-65 56 0H25l-1-190h30c1 10-1 24 2 32 10-44 99-50 107 0 11-21 27-35 58-36 85-2 47 119 55 194h-31v-121c0-29-5-49-35-48" id="ax"/><path d="M59-47c-2 24 18 29 38 22v24C64 9 27 4 27-40v-127H5v-23h24l9-43h21v43h35v23H59v120" id="ay"/><g id="g"><use transform="matrix(0.05,0,0,0.05,0,0)" xlink:href="#au"/><use transform="matrix(0.05,0,0,0.05,5,0)" xlink:href="#ak"/><use transform="matrix(0.05,0,0,0.05,15,0)" xlink:href="#ar"/><use transform="matrix(0.05,0,0,0.05,24,0)" xlink:href="#av"/><use transform="matrix(0.05,0,0,0.05,34,0)" xlink:href="#ai"/><use transform="matrix(0.05,0,0,0.05,44,0)" xlink:href="#aw"/><use transform="matrix(0.05,0,0,0.05,56.95,0)" xlink:href="#ai"/><use transform="matrix(0.05,0,0,0.05,66.95,0)" xlink:href="#ar"/><use transform="matrix(0.05,0,0,0.05,75.95,0)" xlink:href="#am"/><use transform="matrix(0.05,0,0,0.05,79.9,0)" xlink:href="#ax"/><use transform="matrix(0.05,0,0,0.05,94.85000000000001,0)" xlink:href="#am"/><use transform="matrix(0.05,0,0,0.05,98.80000000000001,0)" xlink:href="#ak"/><use transform="matrix(0.05,0,0,0.05,108.80000000000001,0)" xlink:href="#at"/><use transform="matrix(0.05,0,0,0.05,118.80000000000001,0)" xlink:href="#ay"/><use transform="matrix(0.05,0,0,0.05,123.80000000000001,0)" xlink:href="#ao"/></g><g id="h"><use transform="matrix(0.05,0,0,0.05,0,0)" xlink:href="#au"/><use transform="matrix(0.05,0,0,0.05,5,0)" xlink:href="#ao"/><use transform="matrix(0.05,0,0,0.05,15,0)" xlink:href="#ay"/><use transform="matrix(0.05,0,0,0.05,20,0)" xlink:href="#ao"/></g><path d="M177-190C167-65 218 103 67 71c-23-6-38-20-44-43l32-5c15 47 100 32 89-28v-30C133-14 115 1 83 1 29 1 15-40 15-95c0-56 16-97 71-98 29-1 48 16 59 35 1-10 0-23 2-32h30zM94-22c36 0 50-32 50-73 0-42-14-75-50-75-39 0-46 34-46 75s6 73 46 73" id="az"/><g id="i"><use transform="matrix(0.05,0,0,0.05,0,0)" xlink:href="#am"/><use transform="matrix(0.05,0,0,0.05,3.95,0)" xlink:href="#ax"/><use transform="matrix(0.05,0,0,0.05,18.900000000000002,0)" xlink:href="#ai"/><use transform="matrix(0.05,0,0,0.05,28.900000000000002,0)" xlink:href="#az"/><use transform="matrix(0.05,0,0,0.05,38.900000000000006,0)" xlink:href="#ak"/><use transform="matrix(0.05,0,0,0.05,48.900000000000006,0)" xlink:href="#at"/></g><path d="M63-220v92h138v28H63V0H30v-248h175v28H63" id="aA"/><g id="j"><use transform="matrix(0.05,0,0,0.05,0,0)" xlink:href="#aA"/><use transform="matrix(0.05,0,0,0.05,10.950000000000001,0)" xlink:href="#ao"/><use transform="matrix(0.05,0,0,0.05,20.950000000000003,0)" xlink:href="#at"/><use transform="matrix(0.05,0,0,0.05,30.950000000000003,0)" xlink:href="#an"/><use transform="matrix(0.05,0,0,0.05,40.95,0)" xlink:href="#ao"/></g><path fill="#333" d="M153-248C145-148 188 4 80 4 36 3 13-21 6-62l32-5c4 25 16 42 43 43 27 0 39-20 39-49v-147H72v-28h81" id="aB"/><path fill="#333" d="M177-190C167-65 218 103 67 71c-23-6-38-20-44-43l32-5c15 47 100 32 89-28v-30C133-14 115 1 83 1 29 1 15-40 15-95c0-56 16-97 71-98 29-1 48 16 59 35 1-10 0-23 2-32h30zM94-22c36 0 50-32 50-73 0-42-14-75-50-75-39 0-46 34-46 75s6 73 46 73" id="aC"/><g id="k"><use transform="matrix(0.05,0,0,0.05,0,0)" xlink:href="#aB"/><use transform="matrix(0.05,0,0,0.05,9,0)" xlink:href="#Y"/><use transform="matrix(0.05,0,0,0.05,19,0)" xlink:href="#ah"/><use transform="matrix(0.05,0,0,0.05,29,0)" xlink:href="#aC"/><use transform="matrix(0.05,0,0,0.05,39,0)" xlink:href="#ac"/></g><path d="M232-93c-1 65-40 97-104 97C67 4 28-28 28-90v-158h33c8 89-33 224 67 224 102 0 64-133 71-224h33v155" id="aD"/><path d="M84 4C-5 8 30-112 23-190h32v120c0 31 7 50 39 49 72-2 45-101 50-169h31l1 190h-30c-1-10 1-25-2-33-11 22-28 36-60 37" id="aE"/><g id="l"><use transform="matrix(0.05,0,0,0.05,0,0)" xlink:href="#am"/><use transform="matrix(0.05,0,0,0.05,3.95,0)" xlink:href="#an"/><use transform="matrix(0.05,0,0,0.05,13.949999999999998,0)" xlink:href="#aD"/><use transform="matrix(0.05,0,0,0.05,26.899999999999995,0)" xlink:href="#aq"/><use transform="matrix(0.05,0,0,0.05,35.9,0)" xlink:href="#aE"/><use transform="matrix(0.05,0,0,0.05,45.9,0)" xlink:href="#ai"/><use transform="matrix(0.05,0,0,0.05,55.900000000000006,0)" xlink:href="#as"/><use transform="matrix(0.05,0,0,0.05,61.85,0)" xlink:href="#am"/><use transform="matrix(0.05,0,0,0.05,65.8,0)" xlink:href="#ao"/></g><path fill="#333" d="M101-234c-31-9-42 10-38 44h38v23H63V0H32v-167H5v-23h27c-7-52 17-82 69-68v24" id="aF"/><path fill="#333" d="M106-169C34-169 62-67 57 0H25v-261h32l-1 103c12-21 28-36 61-36 89 0 53 116 60 194h-32v-121c2-32-8-49-39-48" id="aG"/><path fill="#333" d="M212-179c-10-28-35-45-73-45-59 0-87 40-87 99 0 60 29 101 89 101 43 0 62-24 78-52l27 14C228-24 195 4 139 4 59 4 22-46 18-125c-6-104 99-153 187-111 19 9 31 26 39 46" id="aH"/><g id="m"><use transform="matrix(0.05,0,0,0.05,0,0)" xlink:href="#aF"/><use transform="matrix(0.05,0,0,0.05,5,0)" xlink:href="#ah"/><use transform="matrix(0.05,0,0,0.05,15,0)" xlink:href="#ap"/><use transform="matrix(0.05,0,0,0.05,24,0)" xlink:href="#aG"/><use transform="matrix(0.05,0,0,0.05,34,0)" xlink:href="#Z"/><use transform="matrix(0.05,0,0,0.05,44,0)" xlink:href="#aH"/><use transform="matrix(0.05,0,0,0.05,56.95,0)" xlink:href="#aa"/><use transform="matrix(0.05,0,0,0.05,62.900000000000006,0)" xlink:href="#ah"/><use transform="matrix(0.05,0,0,0.05,72.9,0)" xlink:href="#Z"/><use transform="matrix(0.05,0,0,0.05,82.9,0)" xlink:href="#ap"/><use transform="matrix(0.05,0,0,0.05,91.9,0)" xlink:href="#ab"/><use transform="matrix(0.05,0,0,0.05,95.85000000000001,0)" xlink:href="#ac"/><use transform="matrix(0.05,0,0,0.05,105.85000000000001,0)" xlink:href="#ae"/></g><path fill="#333" d="M59-47c-2 24 18 29 38 22v24C64 9 27 4 27-40v-127H5v-23h24l9-43h21v43h35v23H59v120" id="aI"/><path fill="#333" d="M115-194c55 1 70 41 70 98S169 2 115 4C84 4 66-9 55-30l1 105H24l-1-265h31l2 30c10-21 28-34 59-34zm-8 174c40 0 45-34 45-75s-6-73-45-74c-42 0-51 32-51 76 0 43 10 73 51 73" id="aJ"/><g id="n"><use transform="matrix(0.05,0,0,0.05,0,0)" xlink:href="#aI"/><use transform="matrix(0.05,0,0,0.05,5,0)" xlink:href="#ab"/><use transform="matrix(0.05,0,0,0.05,8.95,0)" xlink:href="#aJ"/><use transform="matrix(0.05,0,0,0.05,18.95,0)" xlink:href="#ac"/></g><path d="M115-194c53 0 69 39 70 98 0 66-23 100-70 100C84 3 66-7 56-30L54 0H23l1-261h32v101c10-23 28-34 59-34zm-8 174c40 0 45-34 45-75 0-40-5-75-45-74-42 0-51 32-51 76 0 43 10 73 51 73" id="aK"/><g id="o"><use transform="matrix(0.05,0,0,0.05,0,0)" xlink:href="#at"/><use transform="matrix(0.05,0,0,0.05,10,0)" xlink:href="#ao"/><use transform="matrix(0.05,0,0,0.05,20,0)" xlink:href="#ax"/><use transform="matrix(0.05,0,0,0.05,34.95,0)" xlink:href="#aK"/><use transform="matrix(0.05,0,0,0.05,44.95,0)" xlink:href="#as"/><use transform="matrix(0.05,0,0,0.05,50.900000000000006,0)" xlink:href="#ak"/></g><g id="p"><use transform="matrix(0.05,0,0,0.05,0,0)" xlink:href="#an"/><use transform="matrix(0.05,0,0,0.05,10,0)" xlink:href="#ak"/><use transform="matrix(0.05,0,0,0.05,20,0)" xlink:href="#aq"/><use transform="matrix(0.05,0,0,0.05,29,0)" xlink:href="#ai"/><use transform="matrix(0.05,0,0,0.05,39,0)" xlink:href="#as"/><use transform="matrix(0.05,0,0,0.05,44.95,0)" xlink:href="#as"/><use transform="matrix(0.05,0,0,0.05,50.900000000000006,0)" xlink:href="#ao"/><use transform="matrix(0.05,0,0,0.05,60.900000000000006,0)" xlink:href="#al"/><use transform="matrix(0.05,0,0,0.05,64.85000000000001,0)" xlink:href="#al"/><use transform="matrix(0.05,0,0,0.05,68.80000000000001,0)" xlink:href="#ai"/><use transform="matrix(0.05,0,0,0.05,78.80000000000001,0)" xlink:href="#an"/><use transform="matrix(0.05,0,0,0.05,88.80000000000001,0)" xlink:href="#ao"/><use transform="matrix(0.05,0,0,0.05,98.80000000000001,0)" xlink:href="#as"/><use transform="matrix(0.05,0,0,0.05,104.75,0)" xlink:href="#ai"/></g><path fill="#333" d="M30 0v-248h33v221h125V0H30" id="aL"/><g id="q"><use transform="matrix(0.05,0,0,0.05,0,0)" xlink:href="#aL"/><use transform="matrix(0.05,0,0,0.05,10,0)" xlink:href="#ab"/><use transform="matrix(0.05,0,0,0.05,13.949999999999998,0)" xlink:href="#ag"/><use transform="matrix(0.05,0,0,0.05,23.95,0)" xlink:href="#aa"/><use transform="matrix(0.05,0,0,0.05,29.899999999999995,0)" xlink:href="#ah"/><use transform="matrix(0.05,0,0,0.05,39.9,0)" xlink:href="#aa"/><use transform="matrix(0.05,0,0,0.05,45.85,0)" xlink:href="#ab"/><use transform="matrix(0.05,0,0,0.05,49.800000000000004,0)" xlink:href="#Z"/></g><g id="r"><use transform="matrix(0.05,0,0,0.05,0,0)" xlink:href="#ab"/><use transform="matrix(0.05,0,0,0.05,3.95,0)" xlink:href="#ad"/><use transform="matrix(0.05,0,0,0.05,13.949999999999998,0)" xlink:href="#aB"/><use transform="matrix(0.05,0,0,0.05,22.95,0)" xlink:href="#Y"/><use transform="matrix(0.05,0,0,0.05,32.95,0)" xlink:href="#ah"/><use transform="matrix(0.05,0,0,0.05,42.95,0)" xlink:href="#aC"/><use transform="matrix(0.05,0,0,0.05,52.95,0)" xlink:href="#ac"/></g><g id="s"><use transform="matrix(0.05,0,0,0.05,0,0)" xlink:href="#ab"/><use transform="matrix(0.05,0,0,0.05,3.95,0)" xlink:href="#ad"/><use transform="matrix(0.05,0,0,0.05,13.949999999999998,0)" xlink:href="#W"/><use transform="matrix(0.05,0,0,0.05,26.899999999999995,0)" xlink:href="#X"/><use transform="matrix(0.05,0,0,0.05,35.9,0)" xlink:href="#Y"/><use transform="matrix(0.05,0,0,0.05,45.9,0)" xlink:href="#Z"/><use transform="matrix(0.05,0,0,0.05,55.900000000000006,0)" xlink:href="#aa"/><use transform="matrix(0.05,0,0,0.05,61.85,0)" xlink:href="#ab"/><use transform="matrix(0.05,0,0,0.05,65.8,0)" xlink:href="#ac"/></g><path d="M205 0l-28-72H64L36 0H1l101-248h38L239 0h-34zm-38-99l-47-123c-12 45-31 82-46 123h93" id="aM"/><g id="t"><use transform="matrix(0.05,0,0,0.05,0,0)" xlink:href="#au"/><use transform="matrix(0.05,0,0,0.05,5,0)" xlink:href="#ak"/><use transform="matrix(0.05,0,0,0.05,15,0)" xlink:href="#ar"/><use transform="matrix(0.05,0,0,0.05,24,0)" xlink:href="#av"/><use transform="matrix(0.05,0,0,0.05,34,0)" xlink:href="#ai"/><use transform="matrix(0.05,0,0,0.05,44,0)" xlink:href="#aM"/><use transform="matrix(0.05,0,0,0.05,56,0)" xlink:href="#az"/><use transform="matrix(0.05,0,0,0.05,66,0)" xlink:href="#as"/><use transform="matrix(0.05,0,0,0.05,71.95,0)" xlink:href="#ak"/><use transform="matrix(0.05,0,0,0.05,81.95,0)" xlink:href="#az"/><use transform="matrix(0.05,0,0,0.05,91.95,0)" xlink:href="#ai"/><use transform="matrix(0.05,0,0,0.05,101.95,0)" xlink:href="#ar"/><use transform="matrix(0.05,0,0,0.05,110.95,0)" xlink:href="#am"/><use transform="matrix(0.05,0,0,0.05,114.9,0)" xlink:href="#ao"/><use transform="matrix(0.05,0,0,0.05,124.9,0)" xlink:href="#at"/></g><path fill="#333" d="M30-248c87 1 191-15 191 75 0 78-77 80-158 76V0H30v-248zm33 125c57 0 124 11 124-50 0-59-68-47-124-48v98" id="aN"/><path fill="#333" d="M24 0v-261h32V0H24" id="aO"/><g id="u"><use transform="matrix(0.05,0,0,0.05,0,0)" xlink:href="#aN"/><use transform="matrix(0.05,0,0,0.05,12,0)" xlink:href="#Y"/><use transform="matrix(0.05,0,0,0.05,22,0)" xlink:href="#ag"/><use transform="matrix(0.05,0,0,0.05,32,0)" xlink:href="#aO"/><use transform="matrix(0.05,0,0,0.05,35.95,0)" xlink:href="#ab"/><use transform="matrix(0.05,0,0,0.05,39.900000000000006,0)" xlink:href="#ap"/><use transform="matrix(0.05,0,0,0.05,48.900000000000006,0)" xlink:href="#Z"/><use transform="matrix(0.05,0,0,0.05,58.900000000000006,0)" xlink:href="#ap"/><use transform="matrix(0.05,0,0,0.05,67.9,0)" xlink:href="#ab"/><use transform="matrix(0.05,0,0,0.05,71.85000000000001,0)" xlink:href="#ac"/><use transform="matrix(0.05,0,0,0.05,81.85000000000001,0)" xlink:href="#ae"/></g><g id="v"><use transform="matrix(0.05,0,0,0.05,0,0)" xlink:href="#ab"/><use transform="matrix(0.05,0,0,0.05,3.95,0)" xlink:href="#ad"/><use transform="matrix(0.05,0,0,0.05,13.949999999999998,0)" xlink:href="#aL"/><use transform="matrix(0.05,0,0,0.05,23.95,0)" xlink:href="#ab"/><use transform="matrix(0.05,0,0,0.05,27.899999999999995,0)" xlink:href="#ag"/><use transform="matrix(0.05,0,0,0.05,37.9,0)" xlink:href="#aa"/><use transform="matrix(0.05,0,0,0.05,43.85,0)" xlink:href="#ah"/><use transform="matrix(0.05,0,0,0.05,53.85,0)" xlink:href="#aa"/><use transform="matrix(0.05,0,0,0.05,59.800000000000004,0)" xlink:href="#ab"/><use transform="matrix(0.05,0,0,0.05,63.75,0)" xlink:href="#Z"/></g><g id="w"><use transform="matrix(0.05,0,0,0.05,0,0)" xlink:href="#aI"/><use transform="matrix(0.05,0,0,0.05,5,0)" xlink:href="#ab"/><use transform="matrix(0.05,0,0,0.05,8.95,0)" xlink:href="#aI"/><use transform="matrix(0.05,0,0,0.05,13.949999999999998,0)" xlink:href="#Y"/><use transform="matrix(0.05,0,0,0.05,23.95,0)" xlink:href="#aO"/><use transform="matrix(0.05,0,0,0.05,27.899999999999995,0)" xlink:href="#ac"/></g><path d="M145-31C134-9 116 4 85 4 32 4 16-35 15-94c0-59 17-99 70-100 32-1 48 14 60 33 0-11-1-24 2-32h30l-1 268h-32zM93-21c41 0 51-33 51-76s-8-73-50-73c-40 0-46 35-46 75s5 74 45 74" id="aP"/><g id="x"><use transform="matrix(0.05,0,0,0.05,0,0)" xlink:href="#ak"/><use transform="matrix(0.05,0,0,0.05,10,0)" xlink:href="#ay"/><use transform="matrix(0.05,0,0,0.05,15,0)" xlink:href="#am"/><use transform="matrix(0.05,0,0,0.05,18.95,0)" xlink:href="#aP"/><use transform="matrix(0.05,0,0,0.05,28.950000000000003,0)" xlink:href="#aE"/><use transform="matrix(0.05,0,0,0.05,38.95,0)" xlink:href="#ak"/><use transform="matrix(0.05,0,0,0.05,48.95,0)" xlink:href="#ay"/><use transform="matrix(0.05,0,0,0.05,53.95,0)" xlink:href="#ai"/></g><path d="M30-248c87 1 191-15 191 75 0 78-77 80-158 76V0H30v-248zm33 125c57 0 124 11 124-50 0-59-68-47-124-48v98" id="aQ"/><g id="y"><use transform="matrix(0.05,0,0,0.05,0,0)" xlink:href="#au"/><use transform="matrix(0.05,0,0,0.05,5,0)" xlink:href="#ak"/><use transform="matrix(0.05,0,0,0.05,15,0)" xlink:href="#ar"/><use transform="matrix(0.05,0,0,0.05,24,0)" xlink:href="#av"/><use transform="matrix(0.05,0,0,0.05,34,0)" xlink:href="#ai"/><use transform="matrix(0.05,0,0,0.05,44,0)" xlink:href="#aQ"/><use transform="matrix(0.05,0,0,0.05,56,0)" xlink:href="#aE"/><use transform="matrix(0.05,0,0,0.05,66,0)" xlink:href="#aK"/><use transform="matrix(0.05,0,0,0.05,76,0)" xlink:href="#al"/><use transform="matrix(0.05,0,0,0.05,79.95,0)" xlink:href="#am"/><use transform="matrix(0.05,0,0,0.05,83.9,0)" xlink:href="#ar"/><use transform="matrix(0.05,0,0,0.05,92.9,0)" xlink:href="#ai"/><use transform="matrix(0.05,0,0,0.05,102.9,0)" xlink:href="#ar"/><use transform="matrix(0.05,0,0,0.05,111.9,0)" xlink:href="#am"/><use transform="matrix(0.05,0,0,0.05,115.85000000000001,0)" xlink:href="#ao"/><use transform="matrix(0.05,0,0,0.05,125.85000000000001,0)" xlink:href="#at"/></g><path fill="#333" d="M143 4C61 4 22-44 18-125c-5-107 100-154 193-111 17 8 29 25 37 43l-32 9c-13-25-37-40-76-40-61 0-88 39-88 99 0 61 29 100 91 101 35 0 62-11 79-27v-45h-74v-28h105v86C228-13 192 4 143 4" id="aR"/><g id="z"><use transform="matrix(0.05,0,0,0.05,0,0)" xlink:href="#aR"/><use transform="matrix(0.05,0,0,0.05,14,0)" xlink:href="#aa"/><use transform="matrix(0.05,0,0,0.05,19.95,0)" xlink:href="#Y"/><use transform="matrix(0.05,0,0,0.05,29.950000000000003,0)" xlink:href="#aJ"/><use transform="matrix(0.05,0,0,0.05,39.95,0)" xlink:href="#ac"/></g><g id="A"><use transform="matrix(0.05,0,0,0.05,0,0)" xlink:href="#ab"/><use transform="matrix(0.05,0,0,0.05,3.95,0)" xlink:href="#ad"/></g><g id="B"><use transform="matrix(0.05,0,0,0.05,0,0)" xlink:href="#aF"/><use transform="matrix(0.05,0,0,0.05,5,0)" xlink:href="#ah"/><use transform="matrix(0.05,0,0,0.05,15,0)" xlink:href="#ap"/><use transform="matrix(0.05,0,0,0.05,24,0)" xlink:href="#aG"/><use transform="matrix(0.05,0,0,0.05,34,0)" xlink:href="#Z"/></g><g id="C"><use transform="matrix(0.05,0,0,0.05,0,0)" xlink:href="#am"/><use transform="matrix(0.05,0,0,0.05,3.95,0)" xlink:href="#ax"/><use transform="matrix(0.05,0,0,0.05,18.900000000000002,0)" xlink:href="#ai"/><use transform="matrix(0.05,0,0,0.05,28.900000000000002,0)" xlink:href="#az"/><use transform="matrix(0.05,0,0,0.05,38.900000000000006,0)" xlink:href="#ak"/><use transform="matrix(0.05,0,0,0.05,48.900000000000006,0)" xlink:href="#at"/><use transform="matrix(0.05,0,0,0.05,58.900000000000006,0)" xlink:href="#aA"/><use transform="matrix(0.05,0,0,0.05,69.85000000000001,0)" xlink:href="#ao"/><use transform="matrix(0.05,0,0,0.05,79.85000000000001,0)" xlink:href="#at"/><use transform="matrix(0.05,0,0,0.05,89.85000000000001,0)" xlink:href="#an"/><use transform="matrix(0.05,0,0,0.05,99.85000000000001,0)" xlink:href="#ao"/></g><g id="D"><use transform="matrix(0.05,0,0,0.05,0,0)" xlink:href="#W"/><use transform="matrix(0.05,0,0,0.05,12.950000000000001,0)" xlink:href="#X"/><use transform="matrix(0.05,0,0,0.05,21.950000000000003,0)" xlink:href="#aB"/><use transform="matrix(0.05,0,0,0.05,30.950000000000003,0)" xlink:href="#Y"/><use transform="matrix(0.05,0,0,0.05,40.95,0)" xlink:href="#ah"/><use transform="matrix(0.05,0,0,0.05,50.95,0)" xlink:href="#aR"/><use transform="matrix(0.05,0,0,0.05,64.95,0)" xlink:href="#aa"/><use transform="matrix(0.05,0,0,0.05,70.9,0)" xlink:href="#Y"/><use transform="matrix(0.05,0,0,0.05,80.9,0)" xlink:href="#aJ"/></g><g id="E"><use transform="matrix(0.05,0,0,0.05,0,0)" xlink:href="#am"/><use transform="matrix(0.05,0,0,0.05,3.95,0)" xlink:href="#an"/><use transform="matrix(0.05,0,0,0.05,13.949999999999998,0)" xlink:href="#aD"/><use transform="matrix(0.05,0,0,0.05,26.899999999999995,0)" xlink:href="#aq"/><use transform="matrix(0.05,0,0,0.05,35.9,0)" xlink:href="#aE"/><use transform="matrix(0.05,0,0,0.05,45.9,0)" xlink:href="#ai"/><use transform="matrix(0.05,0,0,0.05,55.900000000000006,0)" xlink:href="#as"/><use transform="matrix(0.05,0,0,0.05,61.85,0)" xlink:href="#am"/><use transform="matrix(0.05,0,0,0.05,65.8,0)" xlink:href="#ao"/></g><g id="F"><use transform="matrix(0.05,0,0,0.05,0,0)" xlink:href="#ab"/><use transform="matrix(0.05,0,0,0.05,3.95,0)" xlink:href="#ad"/><use transform="matrix(0.05,0,0,0.05,13.949999999999998,0)" xlink:href="#aR"/><use transform="matrix(0.05,0,0,0.05,27.950000000000003,0)" xlink:href="#aa"/><use transform="matrix(0.05,0,0,0.05,33.9,0)" xlink:href="#Y"/><use transform="matrix(0.05,0,0,0.05,43.9,0)" xlink:href="#aJ"/><use transform="matrix(0.05,0,0,0.05,53.900000000000006,0)" xlink:href="#ac"/></g><g id="G"><use transform="matrix(0.05,0,0,0.05,0,0)" xlink:href="#aF"/><use transform="matrix(0.05,0,0,0.05,5,0)" xlink:href="#ah"/><use transform="matrix(0.05,0,0,0.05,15,0)" xlink:href="#ap"/><use transform="matrix(0.05,0,0,0.05,24,0)" xlink:href="#aG"/><use transform="matrix(0.05,0,0,0.05,34,0)" xlink:href="#Z"/><use transform="matrix(0.05,0,0,0.05,44,0)" xlink:href="#W"/><use transform="matrix(0.05,0,0,0.05,56.95,0)" xlink:href="#ae"/><use transform="matrix(0.05,0,0,0.05,66.95,0)" xlink:href="#ab"/><use transform="matrix(0.05,0,0,0.05,70.9,0)" xlink:href="#ac"/><use transform="matrix(0.05,0,0,0.05,80.9,0)" xlink:href="#ae"/></g><g id="H"><use transform="matrix(0.05,0,0,0.05,0,0)" xlink:href="#aN"/><use transform="matrix(0.05,0,0,0.05,12,0)" xlink:href="#Y"/><use transform="matrix(0.05,0,0,0.05,22,0)" xlink:href="#ag"/><use transform="matrix(0.05,0,0,0.05,32,0)" xlink:href="#aO"/><use transform="matrix(0.05,0,0,0.05,35.95,0)" xlink:href="#ab"/><use transform="matrix(0.05,0,0,0.05,39.900000000000006,0)" xlink:href="#ap"/><use transform="matrix(0.05,0,0,0.05,48.900000000000006,0)" xlink:href="#Z"/><use transform="matrix(0.05,0,0,0.05,58.900000000000006,0)" xlink:href="#ap"/><use transform="matrix(0.05,0,0,0.05,67.9,0)" xlink:href="#ab"/><use transform="matrix(0.05,0,0,0.05,71.85000000000001,0)" xlink:href="#ac"/><use transform="matrix(0.05,0,0,0.05,81.85000000000001,0)" xlink:href="#ae"/><use transform="matrix(0.05,0,0,0.05,91.85000000000001,0)" xlink:href="#aR"/><use transform="matrix(0.05,0,0,0.05,105.85000000000001,0)" xlink:href="#aa"/><use transform="matrix(0.05,0,0,0.05,111.80000000000001,0)" xlink:href="#Y"/><use transform="matrix(0.05,0,0,0.05,121.80000000000001,0)" xlink:href="#aJ"/><use transform="matrix(0.05,0,0,0.05,131.8,0)" xlink:href="#ac"/></g><g id="I"><use transform="matrix(0.05,0,0,0.05,0,0)" xlink:href="#ab"/><use transform="matrix(0.05,0,0,0.05,3.95,0)" xlink:href="#ad"/><use transform="matrix(0.05,0,0,0.05,13.949999999999998,0)" xlink:href="#W"/><use transform="matrix(0.05,0,0,0.05,26.899999999999995,0)" xlink:href="#X"/><use transform="matrix(0.05,0,0,0.05,35.9,0)" xlink:href="#aB"/><use transform="matrix(0.05,0,0,0.05,44.9,0)" xlink:href="#Y"/><use transform="matrix(0.05,0,0,0.05,54.900000000000006,0)" xlink:href="#ah"/><use transform="matrix(0.05,0,0,0.05,64.9,0)" xlink:href="#aR"/><use transform="matrix(0.05,0,0,0.05,78.9,0)" xlink:href="#aa"/><use transform="matrix(0.05,0,0,0.05,84.85000000000001,0)" xlink:href="#Y"/><use transform="matrix(0.05,0,0,0.05,94.85000000000001,0)" xlink:href="#aJ"/></g><g id="J"><use transform="matrix(0.05,0,0,0.05,0,0)" xlink:href="#ak"/><use transform="matrix(0.05,0,0,0.05,10,0)" xlink:href="#ay"/><use transform="matrix(0.05,0,0,0.05,15,0)" xlink:href="#am"/><use transform="matrix(0.05,0,0,0.05,18.95,0)" xlink:href="#aP"/><use transform="matrix(0.05,0,0,0.05,28.950000000000003,0)" xlink:href="#aE"/><use transform="matrix(0.05,0,0,0.05,38.95,0)" xlink:href="#ak"/><use transform="matrix(0.05,0,0,0.05,48.95,0)" xlink:href="#ay"/><use transform="matrix(0.05,0,0,0.05,53.95,0)" xlink:href="#ai"/><use transform="matrix(0.05,0,0,0.05,63.95,0)" xlink:href="#aq"/></g><g id="K"><use transform="matrix(0.05,0,0,0.05,0,0)" xlink:href="#au"/><use transform="matrix(0.05,0,0,0.05,5,0)" xlink:href="#ak"/><use transform="matrix(0.05,0,0,0.05,15,0)" xlink:href="#ar"/><use transform="matrix(0.05,0,0,0.05,24,0)" xlink:href="#av"/><use transform="matrix(0.05,0,0,0.05,34,0)" xlink:href="#ai"/><use transform="matrix(0.05,0,0,0.05,44,0)" xlink:href="#aQ"/><use transform="matrix(0.05,0,0,0.05,56,0)" xlink:href="#aE"/><use transform="matrix(0.05,0,0,0.05,66,0)" xlink:href="#ar"/><use transform="matrix(0.05,0,0,0.05,75,0)" xlink:href="#al"/><use transform="matrix(0.05,0,0,0.05,78.95,0)" xlink:href="#am"/><use transform="matrix(0.05,0,0,0.05,82.9,0)" xlink:href="#ar"/><use transform="matrix(0.05,0,0,0.05,91.9,0)" xlink:href="#ai"/><use transform="matrix(0.05,0,0,0.05,101.9,0)" xlink:href="#ar"/><use transform="matrix(0.05,0,0,0.05,110.9,0)" xlink:href="#am"/><use transform="matrix(0.05,0,0,0.05,114.85000000000001,0)" xlink:href="#ao"/><use transform="matrix(0.05,0,0,0.05,124.85000000000001,0)" xlink:href="#at"/></g><g id="L"><use transform="matrix(0.05,0,0,0.05,0,0)" xlink:href="#aH"/><use transform="matrix(0.05,0,0,0.05,12.950000000000001,0)" xlink:href="#ac"/><use transform="matrix(0.05,0,0,0.05,22.950000000000003,0)" xlink:href="#af"/><use transform="matrix(0.05,0,0,0.05,37.900000000000006,0)" xlink:href="#ah"/><use transform="matrix(0.05,0,0,0.05,47.900000000000006,0)" xlink:href="#ae"/><use transform="matrix(0.05,0,0,0.05,57.900000000000006,0)" xlink:href="#aI"/><use transform="matrix(0.05,0,0,0.05,62.900000000000006,0)" xlink:href="#Z"/><use transform="matrix(0.05,0,0,0.05,72.9,0)" xlink:href="#aa"/><use transform="matrix(0.05,0,0,0.05,78.85000000000001,0)" xlink:href="#ab"/><use transform="matrix(0.05,0,0,0.05,82.80000000000001,0)" xlink:href="#ac"/></g><g id="M"><use transform="matrix(0.05,0,0,0.05,0,0)" xlink:href="#aN"/><use transform="matrix(0.05,0,0,0.05,12,0)" xlink:href="#Y"/><use transform="matrix(0.05,0,0,0.05,22,0)" xlink:href="#ag"/><use transform="matrix(0.05,0,0,0.05,32,0)" xlink:href="#W"/><use transform="matrix(0.05,0,0,0.05,44.95,0)" xlink:href="#X"/></g><g id="N"><use transform="matrix(0.05,0,0,0.05,0,0)" xlink:href="#ab"/><use transform="matrix(0.05,0,0,0.05,3.95,0)" xlink:href="#ad"/><use transform="matrix(0.05,0,0,0.05,13.949999999999998,0)" xlink:href="#aN"/><use transform="matrix(0.05,0,0,0.05,25.950000000000003,0)" xlink:href="#Y"/><use transform="matrix(0.05,0,0,0.05,35.95,0)" xlink:href="#ag"/><use transform="matrix(0.05,0,0,0.05,45.95,0)" xlink:href="#aO"/><use transform="matrix(0.05,0,0,0.05,49.900000000000006,0)" xlink:href="#ab"/><use transform="matrix(0.05,0,0,0.05,53.85,0)" xlink:href="#ap"/><use transform="matrix(0.05,0,0,0.05,62.85,0)" xlink:href="#Z"/><use transform="matrix(0.05,0,0,0.05,72.85000000000001,0)" xlink:href="#ap"/><use transform="matrix(0.05,0,0,0.05,81.85000000000001,0)" xlink:href="#ab"/><use transform="matrix(0.05,0,0,0.05,85.80000000000001,0)" xlink:href="#ac"/><use transform="matrix(0.05,0,0,0.05,95.80000000000001,0)" xlink:href="#ae"/></g><g id="O"><use transform="matrix(0.05,0,0,0.05,0,0)" xlink:href="#ab"/><use transform="matrix(0.05,0,0,0.05,3.95,0)" xlink:href="#ad"/><use transform="matrix(0.05,0,0,0.05,13.949999999999998,0)" xlink:href="#W"/><use transform="matrix(0.05,0,0,0.05,26.899999999999995,0)" xlink:href="#X"/><use transform="matrix(0.05,0,0,0.05,35.9,0)" xlink:href="#Y"/><use transform="matrix(0.05,0,0,0.05,45.9,0)" xlink:href="#Z"/><use transform="matrix(0.05,0,0,0.05,55.900000000000006,0)" xlink:href="#aa"/><use transform="matrix(0.05,0,0,0.05,61.85,0)" xlink:href="#ab"/><use transform="matrix(0.05,0,0,0.05,65.8,0)" xlink:href="#ac"/></g><g id="P"><use transform="matrix(0.05,0,0,0.05,0,0)" xlink:href="#au"/><use transform="matrix(0.05,0,0,0.05,5,0)" xlink:href="#ak"/><use transform="matrix(0.05,0,0,0.05,15,0)" xlink:href="#ar"/><use transform="matrix(0.05,0,0,0.05,24,0)" xlink:href="#av"/><use transform="matrix(0.05,0,0,0.05,34,0)" xlink:href="#ai"/></g><g id="Q"><use transform="matrix(0.05,0,0,0.05,0,0)" xlink:href="#aH"/><use transform="matrix(0.05,0,0,0.05,12.950000000000001,0)" xlink:href="#ac"/><use transform="matrix(0.05,0,0,0.05,22.950000000000003,0)" xlink:href="#af"/><use transform="matrix(0.05,0,0,0.05,37.900000000000006,0)" xlink:href="#ah"/><use transform="matrix(0.05,0,0,0.05,47.900000000000006,0)" xlink:href="#ae"/><use transform="matrix(0.05,0,0,0.05,57.900000000000006,0)" xlink:href="#aI"/><use transform="matrix(0.05,0,0,0.05,62.900000000000006,0)" xlink:href="#Z"/><use transform="matrix(0.05,0,0,0.05,72.9,0)" xlink:href="#aa"/><use transform="matrix(0.05,0,0,0.05,78.85000000000001,0)" xlink:href="#ab"/><use transform="matrix(0.05,0,0,0.05,82.80000000000001,0)" xlink:href="#ac"/><use transform="matrix(0.05,0,0,0.05,92.80000000000001,0)" xlink:href="#aN"/><use transform="matrix(0.05,0,0,0.05,104.80000000000001,0)" xlink:href="#Y"/><use transform="matrix(0.05,0,0,0.05,114.80000000000001,0)" xlink:href="#ag"/><use transform="matrix(0.05,0,0,0.05,124.80000000000001,0)" xlink:href="#aR"/><use transform="matrix(0.05,0,0,0.05,138.8,0)" xlink:href="#aa"/><use transform="matrix(0.05,0,0,0.05,144.75,0)" xlink:href="#Y"/><use transform="matrix(0.05,0,0,0.05,154.75,0)" xlink:href="#aJ"/></g><g id="R"><use transform="matrix(0.05,0,0,0.05,0,0)" xlink:href="#ab"/><use transform="matrix(0.05,0,0,0.05,3.95,0)" xlink:href="#aF"/><use transform="matrix(0.05,0,0,0.05,8.95,0)" xlink:href="#aN"/><use transform="matrix(0.05,0,0,0.05,20.95,0)" xlink:href="#Y"/><use transform="matrix(0.05,0,0,0.05,30.950000000000003,0)" xlink:href="#ag"/><use transform="matrix(0.05,0,0,0.05,40.95,0)" xlink:href="#aR"/><use transform="matrix(0.05,0,0,0.05,54.95,0)" xlink:href="#aa"/><use transform="matrix(0.05,0,0,0.05,60.900000000000006,0)" xlink:href="#Y"/><use transform="matrix(0.05,0,0,0.05,70.9,0)" xlink:href="#aJ"/></g><path fill="#333" d="M233-177c-1 41-23 64-60 70L243 0h-38l-65-103H63V0H30v-248c88 3 205-21 203 71zM63-129c60-2 137 13 137-47 0-61-80-42-137-45v92" id="aS"/><g id="S"><use transform="matrix(0.05,0,0,0.05,0,0)" xlink:href="#aS"/><use transform="matrix(0.05,0,0,0.05,12.950000000000001,0)" xlink:href="#ac"/><use transform="matrix(0.05,0,0,0.05,22.950000000000003,0)" xlink:href="#aO"/></g><g id="T"><use transform="matrix(0.05,0,0,0.05,0,0)" xlink:href="#aa"/><use transform="matrix(0.05,0,0,0.05,5.95,0)" xlink:href="#ac"/><use transform="matrix(0.05,0,0,0.05,15.949999999999998,0)" xlink:href="#aO"/></g><path fill="#333" d="M16-82v-28h88v28H16" id="aT"/><g id="U"><use transform="matrix(0.05,0,0,0.05,0,0)" xlink:href="#W"/><use transform="matrix(0.05,0,0,0.05,12.950000000000001,0)" xlink:href="#X"/><use transform="matrix(0.05,0,0,0.05,21.950000000000003,0)" xlink:href="#aa"/><use transform="matrix(0.05,0,0,0.05,27.900000000000002,0)" xlink:href="#aT"/><use transform="matrix(0.05,0,0,0.05,33.85,0)" xlink:href="#aS"/><use transform="matrix(0.05,0,0,0.05,46.800000000000004,0)" xlink:href="#ac"/><use transform="matrix(0.05,0,0,0.05,56.800000000000004,0)" xlink:href="#aO"/></g><path d="M33 0v-248h34V0H33" id="aU"/><path d="M233-177c-1 41-23 64-60 70L243 0h-38l-65-103H63V0H30v-248c88 3 205-21 203 71zM63-129c60-2 137 13 137-47 0-61-80-42-137-45v92" id="aV"/><g id="V"><use transform="matrix(0.05,0,0,0.05,0,0)" xlink:href="#aU"/><use transform="matrix(0.05,0,0,0.05,5,0)" xlink:href="#an"/><use transform="matrix(0.05,0,0,0.05,15,0)" xlink:href="#aV"/><use transform="matrix(0.05,0,0,0.05,27.950000000000003,0)" xlink:href="#ao"/><use transform="matrix(0.05,0,0,0.05,37.95,0)" xlink:href="#al"/></g></defs></g></svg>